<svg enable-background="new 0 0 479.963 479.963" viewBox="0 0 479.963 479.963" xmlns="http://www.w3.org/2000/svg" xmlns:xlink="http://www.w3.org/1999/xlink"><linearGradient id="a"><stop offset="0" stop-color="#e93e3a"/><stop offset=".346" stop-color="#ed683c"/><stop offset=".717" stop-color="#f3903f"/><stop offset="1" stop-color="#fdc70c"/></linearGradient><linearGradient id="b" gradientTransform="matrix(8 0 0 -8 455.1303 4940.9663)" gradientUnits="userSpaceOnUse" x1="-50.9306" x2="4.7864" xlink:href="#a" y1="587.6231" y2="587.6231"/><linearGradient id="c" gradientTransform="matrix(8 0 0 -8 455.1303 4940.9663)" gradientUnits="userSpaceOnUse" x1="-50.9306" x2="4.7864" xlink:href="#a" y1="587.6213" y2="587.6213"/><linearGradient id="d" gradientTransform="matrix(8 0 0 -8 455.1303 4940.9663)" gradientUnits="userSpaceOnUse" x1="-50.9306" x2="4.7864" xlink:href="#a" y1="581.6213" y2="581.6213"/><path d="m402.949 64.564-160-64c-1.907-.752-4.029-.752-5.936 0l-160 64c-3.04 1.214-5.033 4.158-5.032 7.432v249.648c.106 36.503 19.248 70.307 50.496 89.176l113.384 68c2.535 1.523 5.705 1.523 8.24 0l113.384-68c31.248-18.869 50.39-52.673 50.496-89.176v-249.648c.002-3.273-1.992-6.217-5.032-7.432zm-10.968 257.08c-.09 30.887-16.287 59.49-42.728 75.456l-109.272 65.568-109.272-65.6c-26.431-15.96-42.626-44.548-42.728-75.424v-244.232l152-60.8 152 60.8z" fill="url(#b)"/><path d="m183.981 175.996v40h-16c-4.418 0-8 3.582-8 8v128c0 4.418 3.582 8 8 8h144c4.418 0 8-3.582 8-8v-128c0-4.418-3.582-8-8-8h-16v-40c0-30.928-25.072-56-56-56s-56 25.072-56 56zm120 168h-128v-112h128zm-24-168v40h-80v-40c0-22.091 17.909-40 40-40s40 17.909 40 40z" fill="url(#c)"/><path d="m239.981 247.996c-13.224-.025-23.964 10.675-23.989 23.899-.019 10.174 6.393 19.249 15.989 22.629v33.472h16v-33.472c12.473-4.393 19.023-18.066 14.629-30.539-3.379-9.596-12.454-16.008-22.629-15.989zm0 32c-4.418 0-8-3.582-8-8s3.582-8 8-8 8 3.582 8 8-3.581 8-8 8z" fill="url(#d)"/></svg>